<?xml version="1.0" encoding="utf-8"?>
<!-- Generator: Adobe Illustrator 27.9.0, SVG Export Plug-In . SVG Version: 6.00 Build 0)  -->
<svg version="1.1" id="logo" xmlns="http://www.w3.org/2000/svg" xmlns:xlink="http://www.w3.org/1999/xlink" x="0px" y="0px"
	 viewBox="0 0 118.96 64.26" style="enable-background:new 0 0 118.96 64.26;" xml:space="preserve">
<style type="text/css">
	.st0{fill:#5A6EB4;}
	.st1{fill:url(#SVGID_1_);enable-background:new    ;}
</style>
<path class="st0" d="M111.7,41.89c-4.09,13.99-14.16,20.45-28.48,20.45c-15.45,0-23.21-9.22-23.21-23.86
	c0-15.4,8.8-36.55,32.49-36.55c14.95,0,22.96,8.04,22.9,20.36H99.1c-0.03-4.32-1.33-8.66-7.9-8.66c-9.79,0-14.33,15.6-14.33,25.61
	c0,6.4,1.92,11.31,8.01,11.31c5.81,0,8.49-3.84,10.44-8.66H111.7z"/>
<linearGradient id="SVGID_1_" gradientUnits="userSpaceOnUse" x1="2.5448" y1="32.1282" x2="75.3651" y2="32.1282">
	<stop  offset="0.0998" style="stop-color:#4996D2"/>
	<stop  offset="0.3856" style="stop-color:#5481C1"/>
	<stop  offset="0.6264" style="stop-color:#5973B8"/>
	<stop  offset="0.7704" style="stop-color:#5A6EB4"/>
</linearGradient>
<path class="st1" d="M63.48,14.98c2.88-4.79,6.79-9.01,11.88-11.98H40.32h-9.54h-6.41L2.54,61.26h15.95l0,0l48.01,0
	c-3.98-2.82-6.72-6.89-8.2-11.98l-35.32,0l4.47-11.94l21.82,0c0.19-3.86,0.82-7.94,1.96-11.98l-19.29,0l3.89-10.38L63.48,14.98z"/>
</svg>
